<?xml version="1.0" encoding="UTF-8"?>
<svg version="1.1" xmlns="http://www.w3.org/2000/svg" width="512" height="512">
<path d="M0 0 C4.31842641 1.71424021 7.19096946 3.93814741 10 7.625 C12.24678696 15.207906 11.98949697 20.74325198 8.28222656 27.77294922 C5.95174324 31.90867082 3.48294536 35.95453598 1 40 C-0.26153428 42.08656428 -1.52188663 44.17384348 -2.78125 46.26171875 C-4.87929642 49.73160337 -6.98074952 53.19914402 -9.09619141 56.65844727 C-15.75502856 67.54875996 -22.26984145 78.5220138 -28.75561523 89.51611328 C-29.14302887 90.17142029 -29.5304425 90.82672729 -29.92959595 91.50189209 C-30.97822801 93.27570978 -32.02495179 95.05065521 -33.0715332 96.82568359 C-34.96201712 99.93747899 -36.98031229 102.97046843 -39 106 C25.68 106 90.36 106 157 106 C151.39 96.76 145.78 87.52 140 78 C136.71833217 72.50599854 133.44220907 67.00982824 130.1875 61.5 C128.59976328 58.8172313 127.01093044 56.13511276 125.421875 53.453125 C124.85248451 52.49173615 124.85248451 52.49173615 124.27159119 51.51092529 C120.37254178 44.93211848 116.4348724 38.37656492 112.4753418 31.83398438 C112.03875244 31.11017578 111.60216309 30.38636719 111.15234375 29.640625 C110.78101318 29.02735352 110.40968262 28.41408203 110.02709961 27.78222656 C106.73646817 22.07231225 106.26322833 17.58431394 107 11 C108.30559574 6.73140555 110.59943268 4.31244251 114.125 1.5625 C118.53516448 -0.60952962 123.22492328 -1.10299476 128 0 C136.16667597 3.22446478 139.63593376 10.02031818 143.8125 17.3125 C144.54377708 18.55639605 145.27689488 19.79921152 146.01171875 21.04101562 C147.56269629 23.66839082 149.1030372 26.30158258 150.63525391 28.93994141 C152.97646233 32.96773968 155.3488131 36.9764833 157.73046875 40.98046875 C158.31955017 41.97095215 158.31955017 41.97095215 158.92053223 42.98144531 C159.71563295 44.31814583 160.51081937 45.65479538 161.30609131 46.99139404 C162.50179209 49.00301498 163.69490508 51.0161481 164.88720703 53.02978516 C170.26808414 62.11452597 175.70302493 71.16493297 181.1875 80.1875 C181.8578125 81.29029297 182.528125 82.39308594 183.21875 83.52929688 C184.46560942 85.57699486 185.72867395 87.61496799 187.01228333 89.63983154 C189 93 189 93 190.48124695 96.40863037 C192.37745205 100.39898552 193.85740286 102.86767171 197 106 C203.10275742 107.84353238 208.9689104 107.56373065 215.2890625 107.34765625 C217.07926395 107.33567425 218.86951801 107.33003435 220.65975952 107.33042908 C225.3578022 107.31717096 230.05136962 107.22982501 234.74810791 107.12304688 C242.26961455 106.96474976 249.7926292 106.92032345 257.31550217 106.87450981 C259.93649068 106.84806063 262.55534758 106.79052307 265.1756897 106.72779846 C266.78720267 106.70473558 268.39872388 106.68223941 270.01025391 106.66040039 C270.73352371 106.63494644 271.45679352 106.60949249 272.20198059 106.58326721 C277.29471094 106.54666722 280.07217672 107.82389513 284 111 C288.08142118 115.5226559 289.32364536 118.79146353 289.2109375 124.9453125 C288.72144252 129.71335617 286.46819043 132.79112677 282.9375 135.8125 C277.21953967 140.07055556 271.92430653 139.06788536 265 139 C264.88734236 139.95420743 264.77468472 140.90841486 264.6586132 141.89153767 C263.43427418 152.0734877 261.91894966 162.18714325 260.26611328 172.30737305 C259.99622584 173.97331172 259.72656935 175.63928782 259.4571228 177.30529785 C258.73271953 181.77871154 258.00445715 186.2514878 257.2749238 190.72406745 C256.81772067 193.52761172 256.36121213 196.33126829 255.90490341 199.13495827 C254.47243943 207.93518055 253.03759474 216.7350096 251.59923947 225.53427094 C249.94695089 235.64239986 248.30262675 245.75178195 246.66515553 255.86232156 C245.39255679 263.71692207 244.11289001 271.57035094 242.82793605 279.4229396 C242.06331823 284.09661003 241.30159734 288.77070642 240.54727554 293.44605064 C239.8379498 297.84126333 239.11978449 302.23494441 238.39508438 306.6276474 C238.13233829 308.22940001 237.87264431 309.8316571 237.61641693 311.43446541 C234.46986352 331.08914769 229.59941846 350.09723067 212.73046875 362.484375 C205.61320127 367.41453964 198.45118065 370.88405611 190 373 C189.32857656 373.17549975 188.65715313 373.35099951 187.96538353 373.53181744 C183.62113714 374.2176985 179.32439477 374.14801818 174.93276978 374.14717102 C173.91002594 374.15084771 172.88728211 374.1545244 171.83354604 374.1583125 C168.40155817 374.16933795 164.96960058 374.17319131 161.53759766 374.17700195 C159.07846989 374.1832676 156.61934307 374.18991449 154.16021729 374.19691467 C146.77617984 374.21613361 139.39215043 374.22674304 132.00809532 374.23564246 C128.52533795 374.24003125 125.04258208 374.24539663 121.5598259 374.25063133 C109.97200906 374.26764305 98.38419314 374.28213426 86.79636574 374.28938007 C83.79116439 374.29128978 80.78596304 374.29321014 77.78076172 374.29516602 C77.03388896 374.29564976 76.2870162 374.2961335 75.51751094 374.2966319 C63.43551026 374.30492113 51.35360894 374.33023952 39.27165158 374.36274669 C26.84919257 374.3958956 14.4267839 374.41383601 2.00428045 374.41702431 C-4.96304336 374.41918251 -11.9302224 374.42782896 -18.8975029 374.45348549 C-25.45895155 374.47759251 -32.02018779 374.48096925 -38.58168793 374.47072411 C-40.98133586 374.47023041 -43.38099689 374.47650142 -45.78060532 374.49028015 C-67.09872022 374.60577504 -84.69234298 372.46504367 -100.97265625 357.15625 C-109.359436 348.23620679 -114.40941782 338.03468555 -116.73730469 326.06835938 C-116.90356228 325.22341667 -117.06981987 324.37847397 -117.24111557 323.50792694 C-120.1684489 308.25596041 -122.55887826 292.90014971 -125.05959034 277.5739727 C-125.8314741 272.84701335 -126.60690918 268.1206363 -127.3817749 263.39416504 C-128.67857647 255.48047099 -129.9724789 247.56630708 -131.26464844 239.65185547 C-132.7579975 230.50544686 -134.25622086 221.35984642 -135.75693727 212.21464396 C-137.20576286 203.38485989 -138.65100215 194.55449237 -140.0946579 185.72386169 C-140.70748575 181.97574748 -141.32160536 178.22784832 -141.93677521 174.4801178 C-142.65872256 170.08095117 -143.37754442 165.6812851 -144.09393311 161.28120995 C-144.35728396 159.66690894 -144.62172295 158.05278503 -144.88732147 156.43885231 C-145.24913986 154.23912279 -145.6070354 152.03879005 -145.96392822 149.83825684 C-146.26585775 147.99123295 -146.26585775 147.99123295 -146.57388687 146.10689545 C-147 143 -147 143 -147 139 C-147.86882812 139.04640625 -148.73765625 139.0928125 -149.6328125 139.140625 C-159.07857309 139.43646538 -159.07857309 139.43646538 -163.5625 137.3125 C-168.23988611 132.87497984 -170.81901158 129.76007348 -171.25 123.1875 C-171.15908151 117.67177833 -169.14059765 114.28317235 -165.5 110.1875 C-161.32005092 106.53004455 -157.73045015 106.96089429 -152.49365234 107.23901367 C-150.91131678 107.31174049 -149.32890407 107.38280285 -147.74642944 107.45243835 C-146.48671389 107.50810754 -146.48671389 107.50810754 -145.20154953 107.56490135 C-139.78690428 107.7782638 -134.36884339 107.87450957 -128.95114708 107.977458 C-124.20263437 108.07397941 -119.46698955 108.22069108 -114.72460938 108.48461914 C-95.29201351 110.31595565 -95.29201351 110.31595565 -77.25938416 104.80878448 C-70.40257274 98.62189605 -66.77017654 89.81332639 -63.40997314 81.40029907 C-61.60621231 77.05033942 -59.30943057 73.20551111 -56.78125 69.25 C-56.05326753 68.0302479 -55.33029528 66.80748917 -54.61279297 65.58154297 C-45.78148249 50.60707116 -36.84857577 35.69642589 -27.7578125 20.87792969 C-26.21832065 18.35743941 -24.69928065 15.82621509 -23.1875 13.2890625 C-22.41761487 12.02546346 -21.64689125 10.76237457 -20.875 9.5 C-20.27429688 8.4996875 -19.67359375 7.499375 -19.0546875 6.46875 C-14.01539475 0.41393438 -7.63453632 -1.37183075 0 0 Z M-114 139 C-102.12 211.765 -102.12 211.765 -76 335 C-70.85673363 338.30104187 -66.03771727 341.11920454 -59.81412315 341.13422108 C-58.5281159 341.14090784 -58.5281159 341.14090784 -57.21612871 341.14772969 C-56.27383303 341.14754533 -55.33153735 341.14736097 -54.36068726 341.14717102 C-52.85953666 341.15268605 -52.85953666 341.15268605 -51.32805979 341.1583125 C-47.95877302 341.16936711 -44.58951706 341.17319621 -41.22021484 341.17700195 C-38.8107595 341.18326529 -36.40130512 341.18991197 -33.99185181 341.19691467 C-26.74939456 341.2161553 -19.50693984 341.22674534 -12.2644648 341.23564246 C-8.85265604 341.24002664 -5.44084883 341.24539317 -2.02904129 341.25063133 C9.31508118 341.26764419 20.65920268 341.28213746 32.00333595 341.28938007 C34.9470482 341.29128993 37.89076044 341.29321027 40.83447266 341.29516602 C41.56610659 341.29564976 42.29774053 341.2961335 43.05154519 341.2966319 C54.89846577 341.30492879 66.74528527 341.33025964 78.59216173 341.36274669 C90.75914571 341.39583907 102.92607837 341.41383085 115.09310758 341.41702431 C121.92277822 341.41918755 128.75230152 341.42790854 135.58192825 341.45348549 C142.00872233 341.47749835 148.43532337 341.48100445 154.86215591 341.47072411 C157.21917095 341.47022831 159.57619897 341.4765615 161.93317413 341.49028015 C165.15536184 341.50798308 168.37659679 341.50089993 171.5987854 341.48774719 C172.99215242 341.50420106 172.99215242 341.50420106 174.41366827 341.52098733 C182.63205392 341.44020575 190.08920276 338.91079724 196 333 C199.75588504 327.92355861 201.86775705 323.12443641 202.91894531 316.87573242 C203.07343769 316.03730144 203.22793007 315.19887045 203.38710403 314.33503246 C203.94861656 311.22709417 204.47617127 308.11451247 205 305 C205.2195787 303.71076756 205.43915741 302.42153511 205.66539001 301.09323502 C207.44337688 290.63210992 209.15465175 280.16030024 210.85766125 269.68675256 C211.60120868 265.1184953 212.34873397 260.55088885 213.09576416 255.98320007 C214.34532694 248.33936119 215.59229757 240.69510337 216.83740234 233.05053711 C218.59583703 222.25433777 220.35938631 211.45897817 222.12375021 200.66374648 C223.34720331 193.1768082 224.569385 185.68966231 225.79136753 178.20248389 C226.08741514 176.38866979 226.38350643 174.57486281 226.67964077 172.76106286 C227.52083277 167.60869088 228.36124785 162.45619352 229.20033455 157.30347824 C229.45484743 155.74126854 229.70963075 154.17910288 229.96469688 152.61698341 C230.31117357 150.49467949 230.6566707 148.3722185 231.00189209 146.24971008 C231.1958041 145.05984151 231.38971611 143.86997293 231.58950424 142.64404774 C232.02556915 140.28126024 232.02556915 140.28126024 232 139 C117.82 139 3.64 139 -114 139 Z " fill="#000000" transform="translate(197,69)"/>
<path d="M0 0 C4.52966583 2.47551505 7.16586374 5.37259122 8.8125 10.3125 C8.92989995 13.2978414 8.99066428 16.26066586 9.00537109 19.24682617 C9.01763733 20.61809158 9.01763733 20.61809158 9.03015137 22.01705933 C9.05499018 25.04652249 9.07151878 28.0759388 9.0859375 31.10546875 C9.09126118 32.14082575 9.09658485 33.17618275 9.10206985 34.2429142 C9.1287966 39.72451665 9.14817186 45.20609637 9.16259766 50.68774414 C9.17593121 55.22050176 9.20377413 59.75280861 9.24462891 64.28540039 C9.29398601 69.76133447 9.31872279 75.23685994 9.32582474 80.71300697 C9.33253112 82.79696422 9.34773716 84.88091258 9.37171555 86.96474266 C9.40342345 89.88737583 9.40339508 92.80844032 9.39599609 95.73120117 C9.41240143 96.58604599 9.42880676 97.44089081 9.44570923 98.32164001 C9.3823896 104.45689768 7.70191935 108.5508606 3.8125 113.3125 C-0.68123898 116.9434411 -4.72293808 116.81484094 -10.30859375 116.6640625 C-15.52725269 116.02677715 -18.09583185 113.52218633 -21.5 109.75 C-24.64211325 105.21139198 -24.34761611 100.87616061 -24.36450195 95.56176758 C-24.37107315 94.66709778 -24.37764435 93.77242798 -24.38441467 92.85064697 C-24.40414454 89.88610754 -24.41581059 86.92161881 -24.42578125 83.95703125 C-24.42985678 82.94373938 -24.4339323 81.9304475 -24.43813133 80.88644981 C-24.45899233 75.5215513 -24.47329304 70.15667835 -24.48266602 64.79174805 C-24.49372084 59.25804932 -24.52811016 53.72475377 -24.56783772 48.1911974 C-24.59402137 43.93000048 -24.6023595 39.66889929 -24.60594749 35.40762901 C-24.61081016 33.36834686 -24.62241498 31.32906889 -24.64098549 29.28986549 C-24.66541026 26.42965684 -24.66440555 23.57048674 -24.6574707 20.71020508 C-24.67028076 19.87406174 -24.68309082 19.0379184 -24.69628906 18.17643738 C-24.64628659 12.49356061 -23.47494869 8.02023343 -20.1875 3.3125 C-13.86626389 -1.71868793 -7.56870114 -3.50193635 0 0 Z " fill="#000000" transform="translate(178.1875,251.6875)"/>
<path d="M0 0 C3.68807589 2.6217409 5.39998447 6.08667215 6.796875 10.27734375 C6.90391572 13.21248529 6.95414444 16.12422784 6.95800781 19.05981445 C6.96545517 20.40663803 6.96545517 20.40663803 6.97305298 21.78067017 C6.987673 24.75482954 6.99447648 27.72893557 7 30.703125 C7.00575174 32.76954653 7.01150947 34.83596803 7.01727295 36.90238953 C7.02778259 41.23758188 7.03362545 45.57275568 7.03710938 49.90795898 C7.04259289 55.45971648 7.06661814 61.01122857 7.09508133 66.56290913 C7.11371643 70.83260308 7.11891379 75.10223804 7.12044525 79.37196922 C7.12347051 81.41847258 7.13149477 83.46497493 7.14463043 85.51143837 C7.16170836 88.37671127 7.1598063 91.24138613 7.15332031 94.10668945 C7.16714249 95.37169029 7.16714249 95.37169029 7.1812439 96.6622467 C7.14135487 102.29503853 6.25974302 106.63900422 2.26171875 110.921875 C-3.93683826 115.66194801 -8.43015835 116.15205099 -16.203125 115.27734375 C-20.27720375 113.63067777 -22.46899372 111.46223729 -24.76651001 107.75402832 C-26.5927288 103.33448187 -26.62481477 99.70099127 -26.59130859 94.97070312 C-26.59656555 94.05287552 -26.60182251 93.13504791 -26.60723877 92.18940735 C-26.62040336 89.16646118 -26.61171312 86.14404494 -26.6015625 83.12109375 C-26.60358425 81.01411844 -26.60649653 78.90714382 -26.61026001 76.8001709 C-26.61467857 72.38868535 -26.60826725 67.97738228 -26.59423828 63.56591797 C-26.57714681 57.91667912 -26.58699048 52.26786788 -26.60495567 46.61864471 C-26.61580606 42.26915272 -26.61234137 37.91976179 -26.6045723 33.57026672 C-26.60257377 31.48749236 -26.60501734 29.40470877 -26.61201096 27.32194519 C-26.61964595 24.40904501 -26.60799226 21.4968334 -26.59130859 18.58398438 C-26.59738129 17.72666214 -26.60345398 16.8693399 -26.60971069 15.98603821 C-26.55697785 11.00589169 -25.94610398 7.59902642 -23.203125 3.27734375 C-16.17208437 -3.38364211 -8.55607859 -4.65941489 0 0 Z " fill="#000000" transform="translate(351.203125,252.72265625)"/>
<path d="M0 0 C3.88446678 2.58964452 6.69907021 5.64814041 8.8125 9.875 C8.92694598 12.89428559 8.9803816 15.89101567 8.98950195 18.91113281 C8.99935875 20.31625877 8.99935875 20.31625877 9.00941467 21.74977112 C9.02917407 24.85922317 9.04081654 27.96862685 9.05078125 31.078125 C9.05485678 32.13896049 9.0589323 33.19979599 9.06313133 34.29277802 C9.08400397 39.90823676 9.09830017 45.52367099 9.10766602 51.13916016 C9.11872912 56.9409957 9.15312473 62.74244757 9.19283772 68.54414749 C9.21897903 73.00342524 9.22735569 77.46261128 9.23094749 81.92195892 C9.23582036 84.06058084 9.24745418 86.19919848 9.26598549 88.33774567 C9.29032217 91.33256944 9.28942163 94.32639676 9.2824707 97.32128906 C9.29528076 98.20359695 9.30809082 99.08590485 9.32128906 99.99494934 C9.27513686 105.4552667 8.4309898 108.53438023 4.8125 112.875 C0.99319828 116.50333663 -2.07029006 117.18500458 -7.1875 117.375 C-12.30470994 117.18500458 -15.36819828 116.50333663 -19.1875 112.875 C-23.48757504 107.70151469 -23.76455595 103.81979987 -23.70507812 97.38476562 C-23.7120874 96.44743088 -23.71909668 95.51009613 -23.72631836 94.5443573 C-23.74387507 91.45635051 -23.73228359 88.36926557 -23.71875 85.28125 C-23.72144557 83.12943344 -23.72532854 80.97761806 -23.73034668 78.82580566 C-23.73623859 74.32011293 -23.72768841 69.81473779 -23.70898438 65.30908203 C-23.6861953 59.53866546 -23.69931999 53.7689931 -23.72327423 47.99860382 C-23.73774032 43.55644135 -23.73312243 39.11445481 -23.72276306 34.67228699 C-23.72009803 32.54485485 -23.72335764 30.41740666 -23.73268127 28.28999329 C-23.74285994 25.31464431 -23.72732676 22.34049424 -23.70507812 19.36523438 C-23.71317505 18.48921066 -23.72127197 17.61318695 -23.72961426 16.71061707 C-23.65450806 11.27872911 -22.78694853 8.19099299 -19.1875 3.875 C-13.37010796 -1.37484159 -7.3959011 -2.61031804 0 0 Z " fill="#000000" transform="translate(263.1875,251.125)"/>
</svg>
